<svg id="visual" viewBox="0 0 960 300" width="960" height="300" xmlns="http://www.w3.org/2000/svg" xmlns:xlink="http://www.w3.org/1999/xlink" version="1.1"><rect x="0" y="0" width="960" height="300" fill="#CAF0F8" fill-opacity="0.0"></rect><path d="M0 106L13.3 103.7C26.7 101.3 53.3 96.7 80 88.7C106.7 80.7 133.3 69.3 160 74C186.7 78.7 213.3 99.3 240 99.8C266.7 100.3 293.3 80.7 320 77.5C346.7 74.3 373.3 87.7 400 90C426.7 92.3 453.3 83.7 480 82.8C506.7 82 533.3 89 560 95.2C586.7 101.3 613.3 106.7 640 111.5C666.7 116.3 693.3 120.7 720 113.5C746.7 106.3 773.3 87.7 800 85C826.7 82.3 853.3 95.7 880 96.2C906.7 96.7 933.3 84.3 946.7 78.2L960 72L960 301L946.7 301C933.3 301 906.7 301 880 301C853.3 301 826.7 301 800 301C773.3 301 746.7 301 720 301C693.3 301 666.7 301 640 301C613.3 301 586.7 301 560 301C533.3 301 506.7 301 480 301C453.3 301 426.7 301 400 301C373.3 301 346.7 301 320 301C293.3 301 266.7 301 240 301C213.3 301 186.7 301 160 301C133.3 301 106.7 301 80 301C53.3 301 26.7 301 13.3 301L0 301Z" fill="#fee38d"></path><path d="M0 175L13.3 166.7C26.7 158.3 53.3 141.7 80 140.7C106.7 139.7 133.3 154.3 160 163.3C186.7 172.3 213.3 175.7 240 176.5C266.7 177.3 293.3 175.7 320 172C346.7 168.3 373.3 162.7 400 159.3C426.7 156 453.3 155 480 157.8C506.7 160.7 533.3 167.3 560 166.2C586.7 165 613.3 156 640 156.8C666.7 157.7 693.3 168.3 720 168.7C746.7 169 773.3 159 800 153.3C826.7 147.7 853.3 146.3 880 151.3C906.7 156.3 933.3 167.7 946.7 173.3L960 179L960 301L946.7 301C933.3 301 906.7 301 880 301C853.3 301 826.7 301 800 301C773.3 301 746.7 301 720 301C693.3 301 666.7 301 640 301C613.3 301 586.7 301 560 301C533.3 301 506.7 301 480 301C453.3 301 426.7 301 400 301C373.3 301 346.7 301 320 301C293.3 301 266.7 301 240 301C213.3 301 186.7 301 160 301C133.3 301 106.7 301 80 301C53.3 301 26.7 301 13.3 301L0 301Z" fill="#58caa7"></path><path d="M0 203L13.3 202.5C26.7 202 53.3 201 80 209C106.7 217 133.3 234 160 233.3C186.7 232.7 213.3 214.3 240 210.5C266.7 206.7 293.3 217.3 320 226.2C346.7 235 373.3 242 400 244.7C426.7 247.3 453.3 245.7 480 244.3C506.7 243 533.3 242 560 241C586.7 240 613.3 239 640 241C666.7 243 693.3 248 720 248C746.7 248 773.3 243 800 238.8C826.7 234.7 853.3 231.3 880 230.8C906.7 230.3 933.3 232.7 946.7 233.8L960 235L960 301L946.7 301C933.3 301 906.7 301 880 301C853.3 301 826.7 301 800 301C773.3 301 746.7 301 720 301C693.3 301 666.7 301 640 301C613.3 301 586.7 301 560 301C533.3 301 506.7 301 480 301C453.3 301 426.7 301 400 301C373.3 301 346.7 301 320 301C293.3 301 266.7 301 240 301C213.3 301 186.7 301 160 301C133.3 301 106.7 301 80 301C53.3 301 26.7 301 13.3 301L0 301Z" fill="#0096c7"></path></svg>