<svg id="visual" viewBox="0 0 960 300" width="960" height="300" xmlns="http://www.w3.org/2000/svg" xmlns:xlink="http://www.w3.org/1999/xlink" version="1.1"><rect x="0" y="0" width="960" height="300" fill="#CAF0F8"></rect><path d="M0 111L17.8 107.5C35.7 104 71.3 97 106.8 100.3C142.3 103.7 177.7 117.3 213.2 113.8C248.7 110.3 284.3 89.7 320 89C355.7 88.3 391.3 107.7 426.8 108C462.3 108.3 497.7 89.7 533.2 92.7C568.7 95.7 604.3 120.3 640 131.8C675.7 143.3 711.3 141.7 746.8 129.5C782.3 117.3 817.7 94.7 853.2 85.5C888.7 76.3 924.3 80.7 942.2 82.8L960 85L960 301L942.2 301C924.3 301 888.7 301 853.2 301C817.7 301 782.3 301 746.8 301C711.3 301 675.7 301 640 301C604.3 301 568.7 301 533.2 301C497.7 301 462.3 301 426.8 301C391.3 301 355.7 301 320 301C284.3 301 248.7 301 213.2 301C177.7 301 142.3 301 106.8 301C71.3 301 35.7 301 17.8 301L0 301Z" fill="#fee38d"></path><path d="M0 180L17.8 176.7C35.7 173.3 71.3 166.7 106.8 169.7C142.3 172.7 177.7 185.3 213.2 192.3C248.7 199.3 284.3 200.7 320 198.2C355.7 195.7 391.3 189.3 426.8 188.5C462.3 187.7 497.7 192.3 533.2 189C568.7 185.7 604.3 174.3 640 174.5C675.7 174.7 711.3 186.3 746.8 191.5C782.3 196.7 817.7 195.3 853.2 191.8C888.7 188.3 924.3 182.7 942.2 179.8L960 177L960 301L942.2 301C924.3 301 888.7 301 853.2 301C817.7 301 782.3 301 746.8 301C711.3 301 675.7 301 640 301C604.3 301 568.7 301 533.2 301C497.7 301 462.3 301 426.8 301C391.3 301 355.7 301 320 301C284.3 301 248.7 301 213.2 301C177.7 301 142.3 301 106.8 301C71.3 301 35.7 301 17.8 301L0 301Z" fill="#0096c7"></path></svg>