<svg id="visual" viewBox="0 0 960 200" width="960" height="200" xmlns="http://www.w3.org/2000/svg" xmlns:xlink="http://www.w3.org/1999/xlink" version="1.1"><rect x="0" y="0" width="960" height="200" fill="#025B9B"></rect><path d="M0 82L17.8 85.8C35.7 89.7 71.3 97.3 106.8 95.2C142.3 93 177.7 81 213.2 82.2C248.7 83.3 284.3 97.7 320 109.3C355.7 121 391.3 130 426.8 124.2C462.3 118.3 497.7 97.7 533.2 96.7C568.7 95.7 604.3 114.3 640 113.5C675.7 112.7 711.3 92.3 746.8 85.7C782.3 79 817.7 86 853.2 89.5C888.7 93 924.3 93 942.2 93L960 93L960 0L942.2 0C924.3 0 888.7 0 853.2 0C817.7 0 782.3 0 746.8 0C711.3 0 675.7 0 640 0C604.3 0 568.7 0 533.2 0C497.7 0 462.3 0 426.8 0C391.3 0 355.7 0 320 0C284.3 0 248.7 0 213.2 0C177.7 0 142.3 0 106.8 0C71.3 0 35.7 0 17.8 0L0 0Z" fill="#0096C7"></path></svg>