<svg id="visual" viewBox="0 0 960 200" width="960" height="200" xmlns="http://www.w3.org/2000/svg" xmlns:xlink="http://www.w3.org/1999/xlink" version="1.1"><rect x="0" y="0" width="960" height="200" fill="#023E8A"></rect><path d="M0 86L12.3 90.5C24.7 95 49.3 104 74 111.7C98.7 119.3 123.3 125.7 148 125.2C172.7 124.7 197.3 117.3 221.8 106.8C246.3 96.3 270.7 82.7 295.2 86.3C319.7 90 344.3 111 369 113.3C393.7 115.7 418.3 99.3 443 86.3C467.7 73.3 492.3 63.7 517 63.2C541.7 62.7 566.3 71.3 591 70.2C615.7 69 640.3 58 664.8 53.2C689.3 48.3 713.7 49.7 738.2 56C762.7 62.3 787.3 73.7 812 72.8C836.7 72 861.3 59 886 54.2C910.7 49.3 935.3 52.7 947.7 54.3L960 56L960 0L947.7 0C935.3 0 910.7 0 886 0C861.3 0 836.7 0 812 0C787.3 0 762.7 0 738.2 0C713.7 0 689.3 0 664.8 0C640.3 0 615.7 0 591 0C566.3 0 541.7 0 517 0C492.3 0 467.7 0 443 0C418.3 0 393.7 0 369 0C344.3 0 319.7 0 295.2 0C270.7 0 246.3 0 221.8 0C197.3 0 172.7 0 148 0C123.3 0 98.7 0 74 0C49.3 0 24.7 0 12.3 0L0 0Z" fill="#025B9B" stroke-linecap="round" stroke-linejoin="miter"></path></svg>